<svg width="56" height="56" viewBox="0 0 56 56" fill="none" xmlns="http://www.w3.org/2000/svg">
<g id="arrow-circle-down">
<path id="Vector" d="M35 30.3333L28 37.3333M28 37.3333L21 30.3333M28 37.3333V18.6667M28 49C25.2422 49 22.5115 48.4568 19.9636 47.4015C17.4158 46.3461 15.1008 44.7993 13.1508 42.8492C11.2007 40.8992 9.65388 38.5842 8.59853 36.0364C7.54318 33.4885 7 30.7578 7 28C7 25.2422 7.54318 22.5115 8.59853 19.9636C9.65388 17.4158 11.2007 15.1008 13.1508 13.1508C15.1008 11.2007 17.4158 9.65388 19.9636 8.59853C22.5115 7.54318 25.2422 7 28 7C33.5695 7 38.911 9.21249 42.8492 13.1508C46.7875 17.089 49 22.4305 49 28C49 33.5695 46.7875 38.911 42.8492 42.8492C38.911 46.7875 33.5695 49 28 49Z" stroke="#5E896E" stroke-width="2" stroke-linecap="round" stroke-linejoin="round"/>
</g>
</svg>
