<svg width="56" height="56" viewBox="0 0 56 56" fill="none" xmlns="http://www.w3.org/2000/svg">
<path d="M21 25.6667L28 18.6667M28 18.6667L35 25.6667M28 18.6667V37.3333M28 7C30.7578 7 33.4885 7.54318 36.0364 8.59853C38.5842 9.65388 40.8992 11.2007 42.8492 13.1508C44.7993 15.1008 46.3461 17.4158 47.4015 19.9636C48.4568 22.5115 49 25.2422 49 28C49 30.7578 48.4568 33.4885 47.4015 36.0364C46.3461 38.5842 44.7993 40.8992 42.8492 42.8492C40.8992 44.7993 38.5842 46.3461 36.0364 47.4015C33.4885 48.4568 30.7578 49 28 49C22.4305 49 17.089 46.7875 13.1508 42.8492C9.21249 38.911 7 33.5695 7 28C7 22.4305 9.21249 17.089 13.1508 13.1508C17.089 9.21249 22.4305 7 28 7Z" stroke="#F05252" stroke-width="2" stroke-linecap="round" stroke-linejoin="round"/>
</svg>
