<svg width="28" height="28" viewBox="0 0 28 28" fill="none" xmlns="http://www.w3.org/2000/svg">
<g id="external-link">
<path id="Vector" d="M15.4004 4.19995C15.0291 4.19995 14.673 4.34745 14.4105 4.61C14.1479 4.87255 14.0004 5.22865 14.0004 5.59995C14.0004 5.97125 14.1479 6.32735 14.4105 6.5899C14.673 6.85245 15.0291 6.99995 15.4004 6.99995H19.0208L10.2106 15.8102C10.0769 15.9393 9.97024 16.0938 9.89686 16.2646C9.82349 16.4354 9.78487 16.6191 9.78326 16.805C9.78164 16.9909 9.81706 17.1752 9.88746 17.3473C9.95785 17.5193 10.0618 17.6757 10.1933 17.8071C10.3247 17.9386 10.481 18.0425 10.6531 18.1129C10.8251 18.1833 11.0095 18.2187 11.1954 18.2171C11.3813 18.2155 11.565 18.1769 11.7358 18.1035C11.9066 18.0301 12.0611 17.9235 12.1902 17.7898L21.0004 8.97955V12.6C21.0004 12.9713 21.1479 13.3273 21.4105 13.5899C21.673 13.8525 22.0291 14 22.4004 14C22.7717 14 23.1278 13.8525 23.3904 13.5899C23.6529 13.3273 23.8004 12.9713 23.8004 12.6V5.59995C23.8004 5.22865 23.6529 4.87255 23.3904 4.61C23.1278 4.34745 22.7717 4.19995 22.4004 4.19995H15.4004Z" fill="#5E896E"/>
<path id="Vector_2" d="M7.0002 7C6.25759 7 5.5454 7.295 5.0203 7.8201C4.49519 8.3452 4.2002 9.05739 4.2002 9.8V21C4.2002 21.7426 4.49519 22.4548 5.0203 22.9799C5.5454 23.505 6.25759 23.8 7.0002 23.8H18.2002C18.9428 23.8 19.655 23.505 20.1801 22.9799C20.7052 22.4548 21.0002 21.7426 21.0002 21V16.8C21.0002 16.4287 20.8527 16.0726 20.5901 15.8101C20.3276 15.5475 19.9715 15.4 19.6002 15.4C19.2289 15.4 18.8728 15.5475 18.6102 15.8101C18.3477 16.0726 18.2002 16.4287 18.2002 16.8V21H7.0002V9.8H11.2002C11.5715 9.8 11.9276 9.6525 12.1901 9.38995C12.4527 9.1274 12.6002 8.7713 12.6002 8.4C12.6002 8.0287 12.4527 7.6726 12.1901 7.41005C11.9276 7.1475 11.5715 7 11.2002 7H7.0002Z" fill="#5E896E"/>
</g>
</svg>
