<svg width="32" height="32" viewBox="0 0 32 32" fill="none" xmlns="http://www.w3.org/2000/svg">
<rect x="0.5" y="0.5" width="31" height="31" rx="7.5" stroke="#046C4E"/>
<path d="M9.82214 9.82019C9.50958 10.1327 9.33398 10.5567 9.33398 10.9987V12.6654C9.33398 13.1074 9.50958 13.5313 9.82214 13.8439C10.1347 14.1564 10.5586 14.332 11.0007 14.332H12.6673C13.1093 14.332 13.5333 14.1564 13.8458 13.8439C14.1584 13.5313 14.334 13.1074 14.334 12.6654V10.9987C14.334 10.5567 14.1584 10.1327 13.8458 9.82019C13.5333 9.50763 13.1093 9.33203 12.6673 9.33203H11.0007C10.5586 9.33203 10.1347 9.50763 9.82214 9.82019Z" stroke="#046C4E" stroke-width="2" stroke-linecap="round" stroke-linejoin="round"/>
<path d="M18.1555 9.82019C17.8429 10.1327 17.6673 10.5567 17.6673 10.9987V12.6654C17.6673 13.1074 17.8429 13.5313 18.1555 13.8439C18.468 14.1564 18.892 14.332 19.334 14.332H21.0007C21.4427 14.332 21.8666 14.1564 22.1792 13.8439C22.4917 13.5313 22.6673 13.1074 22.6673 12.6654V10.9987C22.6673 10.5567 22.4917 10.1327 22.1792 9.82019C21.8666 9.50763 21.4427 9.33203 21.0007 9.33203H19.334C18.892 9.33203 18.468 9.50763 18.1555 9.82019Z" stroke="#046C4E" stroke-width="2" stroke-linecap="round" stroke-linejoin="round"/>
<path d="M9.82214 18.1535C9.50958 18.4661 9.33398 18.89 9.33398 19.332V20.9987C9.33398 21.4407 9.50958 21.8646 9.82214 22.1772C10.1347 22.4898 10.5586 22.6654 11.0007 22.6654H12.6673C13.1093 22.6654 13.5333 22.4898 13.8458 22.1772C14.1584 21.8646 14.334 21.4407 14.334 20.9987V19.332C14.334 18.89 14.1584 18.4661 13.8458 18.1535C13.5333 17.841 13.1093 17.6654 12.6673 17.6654H11.0007C10.5586 17.6654 10.1347 17.841 9.82214 18.1535Z" stroke="#046C4E" stroke-width="2" stroke-linecap="round" stroke-linejoin="round"/>
<path d="M18.1555 18.1535C17.8429 18.4661 17.6673 18.89 17.6673 19.332V20.9987C17.6673 21.4407 17.8429 21.8646 18.1555 22.1772C18.468 22.4898 18.892 22.6654 19.334 22.6654H21.0007C21.4427 22.6654 21.8666 22.4898 22.1792 22.1772C22.4917 21.8646 22.6673 21.4407 22.6673 20.9987V19.332C22.6673 18.89 22.4917 18.4661 22.1792 18.1535C21.8666 17.841 21.4427 17.6654 21.0007 17.6654H19.334C18.892 17.6654 18.468 17.841 18.1555 18.1535Z" stroke="#046C4E" stroke-width="2" stroke-linecap="round" stroke-linejoin="round"/>
</svg>
