<svg width="24" height="25" viewBox="0 0 24 25" fill="none" xmlns="http://www.w3.org/2000/svg">
<g id="save">
<path id="Vector" d="M23.2468 6.59098L18.7532 2.65902C18.2709 2.23706 17.6169 2 16.9349 2H2.57143C1.15125 2 0 3.00734 0 4.25V20.75C0 21.9927 1.15125 23 2.57143 23H21.4286C22.8488 23 24 21.9927 24 20.75V8.18197C24 7.58523 23.7291 7.01294 23.2468 6.59098ZM14.5714 4.25V8H7.71429V4.25H14.5714ZM21.1071 20.75H2.89286C2.80761 20.75 2.72585 20.7204 2.66557 20.6676C2.60529 20.6149 2.57143 20.5433 2.57143 20.4688V4.53125C2.57143 4.45666 2.60529 4.38512 2.66557 4.33238C2.72585 4.27963 2.80761 4.25 2.89286 4.25H5.14286V9.125C5.14286 9.74633 5.71848 10.25 6.42857 10.25H15.8571C16.5672 10.25 17.1429 9.74633 17.1429 9.125V4.43197L21.3344 8.09961C21.3643 8.12573 21.388 8.15674 21.4041 8.19086C21.4203 8.22499 21.4286 8.26156 21.4286 8.2985V20.4688C21.4286 20.5433 21.3947 20.6149 21.3344 20.6676C21.2741 20.7204 21.1924 20.75 21.1071 20.75ZM12 11.375C9.40055 11.375 7.28571 13.2255 7.28571 15.5C7.28571 17.7745 9.40055 19.625 12 19.625C14.5994 19.625 16.7143 17.7745 16.7143 15.5C16.7143 13.2255 14.5994 11.375 12 11.375ZM12 17.375C10.8184 17.375 9.85714 16.5339 9.85714 15.5C9.85714 14.4661 10.8184 13.625 12 13.625C13.1816 13.625 14.1429 14.4661 14.1429 15.5C14.1429 16.5339 13.1816 17.375 12 17.375Z" fill="white"/>
</g>
</svg>
